<?xml version="1.0" encoding="utf-8"?>
<!-- Generator: Adobe Illustrator 25.3.1, SVG Export Plug-In . SVG Version: 6.00 Build 0)  -->
<svg version="1.1" id="Réteg_1" xmlns="http://www.w3.org/2000/svg" xmlns:xlink="http://www.w3.org/1999/xlink" x="0px" y="0px"
	 viewBox="0 0 300 65" style="enable-background:new 0 0 300 65;" xml:space="preserve">
<style type="text/css">
	.st0{fill:#2f2f2f;}
</style>
<g>
	<g>
		<path class="st0" d="M3.85,33.34l12.36-2.81l-1.52-8.06l9,1.36L26.95,9.9l-22.7,6.08c0,0-4.71,1.26-3.45,5.98L3.85,33.34z"/>
		<path class="st0" d="M52.38,34.87l-12.82,3.16l1.54,8.05l-9.03-1.37L29.1,57.44l22.64-6.07c0,0,4.71-1.26,3.45-5.98L52.38,34.87z"
			/>
		<path class="st0" d="M32.07,23.84l9.03-1.36l-1.54,8.06L51.9,33.1L45.69,9.93c0,0-1.26-4.71-5.98-3.45L28.6,9.46L32.07,23.84z"/>
		<path class="st0" d="M23.68,44.71l-8.99,1.37l1.52-8.05L4.3,35.02l6.01,22.4c0,0,1.26,4.71,5.97,3.45l10.83-2.9L23.68,44.71z"/>
	</g>
	<g>
		<path class="st0" d="M272.25,45.91V27.93c0-2.7-1.15-3.91-3.85-3.91h-6.33h-0.63h-4.37c-2.41,0-3.56,0.75-4.14,2.99l-4.25,16.26
			c-0.4,1.55-0.58,3.1-0.58,3.1h-0.11c0,0-0.18-1.55-0.64-3.1l-5.46-19.14h-6.44l-5.4,19.14c-0.46,1.55-0.68,3.1-0.68,3.1h-0.12
			c0,0-0.17-1.55-0.58-3.1l-4.31-16.26c-0.58-2.24-1.72-2.99-4.14-2.99h-5v6.2h0.8c0.86,0,1.32,0.17,1.61,1.04l7.01,22.06h8.28
			l4.94-16.72c0.46-1.55,0.75-3.16,0.75-3.16h0.12c0,0,0.23,1.61,0.69,3.16l5,16.72h8.22l7.01-22.06c0.34-0.86,0.75-1.04,1.61-1.04
			h0.17h0.63h1.67c0.8,0,1.27,0.41,1.27,1.27v17.93c0,2.76,1.15,3.91,3.85,3.91h6.96v-6.15h-2.3
			C272.71,47.18,272.25,46.72,272.25,45.91"/>
		<path class="st0" d="M282.54,12.53h-6.95v6.2h2.3c0.81,0,1.26,0.4,1.26,1.27v33.32h7.3V16.44
			C286.45,13.74,285.24,12.53,282.54,12.53"/>
		<path class="st0" d="M295.65,12.53h-6.95v6.2h2.29c0.81,0,1.27,0.4,1.27,1.27v33.32h7.29V16.44
			C299.56,13.74,298.35,12.53,295.65,12.53"/>
		<path class="st0" d="M204.67,39.25c-0.37,4.99-3.99,8.29-8.31,8.29c-4.5,0-8.29-3.68-8.29-9.14c0-5.4,3.79-9.14,8.29-9.14
			c4.32,0,7.94,3.35,8.31,8.3V39.25z M211.97,45.89V12.57h-7.3v12.79c-2.39-1.47-5.23-2.31-8.31-2.31
			c-8.51,0-15.31,6.38-15.31,15.34c0,9.02,6.81,15.34,15.31,15.34c3.19,0,6.14-0.88,8.58-2.45c0.49,1.41,1.66,2.07,3.64,2.07h6.95
			v-6.21h-2.3C212.43,47.16,211.97,46.75,211.97,45.89"/>
		<path class="st0" d="M163.84,47.54c-4.5,0-8.29-3.68-8.29-9.14c0-5.4,3.79-9.14,8.29-9.14c4.55,0,8.35,3.74,8.35,9.14
			C172.19,43.86,168.39,47.54,163.84,47.54 M163.84,23.06c-8.51,0-15.31,6.38-15.31,15.34c0,9.02,6.8,15.34,15.31,15.34
			c8.56,0,15.37-6.32,15.37-15.34C179.21,29.43,172.4,23.06,163.84,23.06"/>
		<path class="st0" d="M131.32,47.54c-4.5,0-8.29-3.68-8.29-9.14c0-5.4,3.79-9.14,8.29-9.14c4.56,0,8.35,3.74,8.35,9.14
			C139.66,43.86,135.87,47.54,131.32,47.54 M131.32,23.06c-8.51,0-15.31,6.38-15.31,15.34c0,9.02,6.8,15.34,15.31,15.34
			c8.56,0,15.37-6.32,15.37-15.34C146.69,29.43,139.88,23.06,131.32,23.06"/>
		<path class="st0" d="M109.31,31.97h-6.64v6.41h2.48c0.81,0,1.27,0.4,1.27,1.27v3.06c0,0-3.87,4.27-10.39,4.27
			c-7.33,0-13.45-5.49-13.45-14.44c0-8.31,6.06-13.92,13.16-13.92c6.24,0,10.51,3.64,10.51,3.64l4.27-5.43c0,0-4.91-5.2-14.96-5.2
			c-11.89,0-20.84,9.18-20.84,20.96c0,13.22,9.18,21.42,19.92,21.42c7.68,0,12.07-4.39,12.07-4.39h0.12c0,0-0.06,0.86-0.06,1.73
			v1.96h6.47v-17.5C113.24,33.13,112.08,31.97,109.31,31.97"/>
		<rect x="265.97" y="12.46" class="st0" width="6.17" height="6.19"/>
	</g>
</g>
</svg>
